<?xml version="1.0" encoding="UTF-8" standalone="no"?>
<!DOCTYPE svg PUBLIC "-//W3C//DTD SVG 1.1//EN"
 "http://www.w3.org/Graphics/SVG/1.1/DTD/svg11.dtd">
<!-- Generated by graphviz version 2.42.4 (0)
 -->
<!-- Title: G Pages: 1 -->
<svg width="2583pt" height="375pt"
 viewBox="0.00 0.00 2583.02 375.20" xmlns="http://www.w3.org/2000/svg" xmlns:xlink="http://www.w3.org/1999/xlink">
<g id="graph0" class="graph" transform="scale(1 1) rotate(0) translate(21.6 353.6)">
<title>G</title>
<!-- planner -->
<g id="node1" class="node">
<title>planner</title>
<ellipse fill="#eefaf3" stroke="#2e8b57" stroke-width="2.5" cx="41" cy="-182" rx="41" ry="18"/>
<text text-anchor="middle" x="41" y="-178.9" font-family="Arial" font-size="12.00" fill="#1f2933">planner</text>
</g>
<!-- scope_review -->
<g id="node2" class="node">
<title>scope_review</title>
<ellipse fill="#f7f7fb" stroke="#59636e" stroke-width="1.4" cx="220" cy="-253" rx="64.75" ry="18"/>
<text text-anchor="middle" x="220" y="-249.9" font-family="Arial" font-size="12.00" fill="#1f2933">scope_review</text>
</g>
<!-- planner&#45;&gt;scope_review -->
<g id="edge13" class="edge">
<title>planner&#45;&gt;scope_review</title>
<path fill="none" stroke="#7f56d9" stroke-width="1.1" stroke-dasharray="5,2" d="M75.42,-192.04C90.42,-196.79 108.24,-202.78 124,-209 142.78,-216.42 163.16,-225.68 180.21,-233.8"/>
<polygon fill="#7f56d9" stroke="#7f56d9" stroke-width="1.1" points="179.4,-236.32 187.3,-237.2 181.67,-231.59 179.4,-236.32"/>
<text text-anchor="middle" x="115" y="-211.8" font-family="Arial" font-size="9.00" fill="#6941c6">else</text>
</g>
<!-- branch_a -->
<g id="node3" class="node">
<title>branch_a</title>
<ellipse fill="#f7f7fb" stroke="#59636e" stroke-width="1.4" cx="531.94" cy="-233" rx="47.89" ry="18"/>
<text text-anchor="middle" x="531.94" y="-229.9" font-family="Arial" font-size="12.00" fill="#1f2933">branch_a</text>
</g>
<!-- planner&#45;&gt;branch_a -->
<g id="edge10" class="edge">
<title>planner&#45;&gt;branch_a</title>
<path fill="none" stroke="#7f56d9" stroke-width="1.1" stroke-dasharray="5,2" d="M76.39,-172.9C149.97,-155.23 326.82,-122.49 460,-176 473.7,-181.51 472.65,-189.53 484,-199 489.56,-203.64 495.7,-208.36 501.66,-212.74"/>
<polygon fill="#7f56d9" stroke="#7f56d9" stroke-width="1.1" points="500.41,-215.08 508.02,-217.35 503.49,-210.83 500.41,-215.08"/>
<text text-anchor="middle" x="220" y="-160.8" font-family="Arial" font-size="9.00" fill="#6941c6">control.scope.decision == &#39;approve&#39;</text>
</g>
<!-- branch_b -->
<g id="node4" class="node">
<title>branch_b</title>
<ellipse fill="#f7f7fb" stroke="#59636e" stroke-width="1.4" cx="531.94" cy="-303" rx="47.89" ry="18"/>
<text text-anchor="middle" x="531.94" y="-299.9" font-family="Arial" font-size="12.00" fill="#1f2933">branch_b</text>
</g>
<!-- planner&#45;&gt;branch_b -->
<g id="edge11" class="edge">
<title>planner&#45;&gt;branch_b</title>
<path fill="none" stroke="#7f56d9" stroke-width="1.1" stroke-dasharray="5,2" d="M53.68,-199.28C71.09,-223.47 106.3,-266.73 148,-287 257.49,-340.23 406.09,-325.55 481.96,-312.83"/>
<polygon fill="#7f56d9" stroke="#7f56d9" stroke-width="1.1" points="482.57,-315.39 489.51,-311.53 481.68,-310.22 482.57,-315.39"/>
<text text-anchor="middle" x="220" y="-324.8" font-family="Arial" font-size="9.00" fill="#6941c6">control.scope.decision == &#39;approve&#39;</text>
</g>
<!-- branch_c -->
<g id="node5" class="node">
<title>branch_c</title>
<ellipse fill="#f7f7fb" stroke="#59636e" stroke-width="1.4" cx="531.94" cy="-165" rx="47.01" ry="18"/>
<text text-anchor="middle" x="531.94" y="-161.9" font-family="Arial" font-size="12.00" fill="#1f2933">branch_c</text>
</g>
<!-- planner&#45;&gt;branch_c -->
<g id="edge12" class="edge">
<title>planner&#45;&gt;branch_c</title>
<path fill="none" stroke="#7f56d9" stroke-width="1.1" stroke-dasharray="5,2" d="M57.23,-165.24C76.2,-145.85 110.71,-115.26 148,-105 282.12,-68.1 327.22,-88.49 460,-130 473.15,-134.11 486.88,-140.37 498.73,-146.47"/>
<polygon fill="#7f56d9" stroke="#7f56d9" stroke-width="1.1" points="497.61,-148.85 505.47,-150.03 500.06,-144.2 497.61,-148.85"/>
<text text-anchor="middle" x="220" y="-107.8" font-family="Arial" font-size="9.00" fill="#6941c6">control.scope.decision == &#39;approve&#39;</text>
</g>
<!-- scope_review&#45;&gt;planner -->
<g id="edge17" class="edge">
<title>scope_review&#45;&gt;planner</title>
<path fill="none" stroke="#7f56d9" stroke-width="1.1" stroke-dasharray="5,2" d="M169.94,-241.56C149.73,-236.11 126.33,-228.84 106,-220 93.92,-214.75 81.33,-207.67 70.53,-201.03"/>
<polygon fill="#7f56d9" stroke="#7f56d9" stroke-width="1.1" points="71.82,-198.74 64.07,-196.98 69.03,-203.19 71.82,-198.74"/>
<text text-anchor="middle" x="115" y="-229.8" font-family="Arial" font-size="9.00" fill="#6941c6">else</text>
</g>
<!-- scope_review&#45;&gt;branch_a -->
<g id="edge14" class="edge">
<title>scope_review&#45;&gt;branch_a</title>
<path fill="none" stroke="#7f56d9" stroke-width="1.1" stroke-dasharray="5,2" d="M283.35,-248.98C339.96,-245.32 422.62,-239.99 476.59,-236.51"/>
<polygon fill="#7f56d9" stroke="#7f56d9" stroke-width="1.1" points="477.03,-239.11 484.34,-236.01 476.69,-233.87 477.03,-239.11"/>
<text text-anchor="middle" x="388" y="-248.8" font-family="Arial" font-size="9.00" fill="#6941c6">control.scope.decision == &#39;approve&#39;</text>
</g>
<!-- scope_review&#45;&gt;branch_b -->
<g id="edge15" class="edge">
<title>scope_review&#45;&gt;branch_b</title>
<path fill="none" stroke="#7f56d9" stroke-width="1.1" stroke-dasharray="5,2" d="M276.41,-261.94C334.12,-271.25 423.76,-285.71 479.82,-294.75"/>
<polygon fill="#7f56d9" stroke="#7f56d9" stroke-width="1.1" points="479.68,-297.39 487.5,-295.99 480.52,-292.21 479.68,-297.39"/>
<text text-anchor="middle" x="388" y="-292.8" font-family="Arial" font-size="9.00" fill="#6941c6">control.scope.decision == &#39;approve&#39;</text>
</g>
<!-- scope_review&#45;&gt;branch_c -->
<g id="edge16" class="edge">
<title>scope_review&#45;&gt;branch_c</title>
<path fill="none" stroke="#7f56d9" stroke-width="1.1" stroke-dasharray="5,2" d="M259.08,-238.41C276.33,-232.05 297.06,-224.75 316,-219 372.9,-201.72 439.44,-185.62 483.24,-175.58"/>
<polygon fill="#7f56d9" stroke="#7f56d9" stroke-width="1.1" points="483.88,-178.12 490.61,-173.89 482.71,-173 483.88,-178.12"/>
<text text-anchor="middle" x="388" y="-221.8" font-family="Arial" font-size="9.00" fill="#6941c6">control.scope.decision == &#39;approve&#39;</text>
</g>
<!-- evidence_critic -->
<g id="node6" class="node">
<title>evidence_critic</title>
<ellipse fill="#f7f7fb" stroke="#59636e" stroke-width="1.4" cx="697.68" cy="-218" rx="68.59" ry="18"/>
<text text-anchor="middle" x="697.68" y="-214.9" font-family="Arial" font-size="12.00" fill="#1f2933">evidence_critic</text>
</g>
<!-- branch_a&#45;&gt;evidence_critic -->
<g id="edge1" class="edge">
<title>branch_a&#45;&gt;evidence_critic</title>
<path fill="none" stroke="#667085" stroke-width="1.1" d="M578.99,-228.78C593.22,-227.48 609.24,-226.01 624.78,-224.59"/>
<polygon fill="#667085" stroke="#667085" stroke-width="1.1" points="625.12,-227.19 632.35,-223.89 624.65,-221.96 625.12,-227.19"/>
</g>
<!-- branch_b&#45;&gt;evidence_critic -->
<g id="edge2" class="edge">
<title>branch_b&#45;&gt;evidence_critic</title>
<path fill="none" stroke="#667085" stroke-width="1.1" d="M560.72,-288.58C587.67,-274.59 628.76,-253.26 658.72,-237.71"/>
<polygon fill="#667085" stroke="#667085" stroke-width="1.1" points="660.25,-239.87 665.7,-234.09 657.83,-235.21 660.25,-239.87"/>
</g>
<!-- branch_c&#45;&gt;evidence_critic -->
<g id="edge3" class="edge">
<title>branch_c&#45;&gt;evidence_critic</title>
<path fill="none" stroke="#667085" stroke-width="1.1" d="M568.47,-176.5C591.24,-183.87 621.15,-193.55 646.35,-201.71"/>
<polygon fill="#667085" stroke="#667085" stroke-width="1.1" points="645.72,-204.26 653.66,-204.07 647.33,-199.27 645.72,-204.26"/>
</g>
<!-- reset_debate -->
<g id="node7" class="node">
<title>reset_debate</title>
<path fill="#f2f4f7" stroke="#59636e" stroke-width="1.4" d="M1123.48,-169C1123.48,-169 1059.48,-169 1059.48,-169 1053.48,-169 1047.48,-163 1047.48,-157 1047.48,-157 1047.48,-145 1047.48,-145 1047.48,-139 1053.48,-133 1059.48,-133 1059.48,-133 1123.48,-133 1123.48,-133 1129.48,-133 1135.48,-139 1135.48,-145 1135.48,-145 1135.48,-157 1135.48,-157 1135.48,-163 1129.48,-169 1123.48,-169"/>
<text text-anchor="middle" x="1091.48" y="-147.9" font-family="Arial" font-size="12.00" fill="#1f2933">reset_debate</text>
</g>
<!-- evidence_critic&#45;&gt;reset_debate -->
<g id="edge18" class="edge">
<title>evidence_critic&#45;&gt;reset_debate</title>
<path fill="none" stroke="#7f56d9" stroke-width="1.1" stroke-dasharray="5,2" d="M733.32,-202.36C750.23,-195.36 771.07,-187.65 790.48,-183 876.27,-162.43 979.04,-155.08 1039.31,-152.45"/>
<polygon fill="#7f56d9" stroke="#7f56d9" stroke-width="1.1" points="1039.78,-155.06 1047.16,-152.13 1039.56,-149.81 1039.78,-155.06"/>
<text text-anchor="middle" x="906.98" y="-185.8" font-family="Arial" font-size="9.00" fill="#6941c6">working.reviewed_evidence.has_critical_conflicts == true</text>
</g>
<!-- integrator -->
<g id="node11" class="node">
<title>integrator</title>
<ellipse fill="#f7f7fb" stroke="#59636e" stroke-width="1.4" cx="1924.67" cy="-110" rx="47.89" ry="18"/>
<text text-anchor="middle" x="1924.67" y="-106.9" font-family="Arial" font-size="12.00" fill="#1f2933">integrator</text>
</g>
<!-- evidence_critic&#45;&gt;integrator -->
<g id="edge19" class="edge">
<title>evidence_critic&#45;&gt;integrator</title>
<path fill="none" stroke="#7f56d9" stroke-width="1.1" stroke-dasharray="5,2" d="M766.63,-218C844.77,-218 976.88,-218 1090.48,-218 1090.48,-218 1090.48,-218 1792.59,-218 1844.89,-218 1887.65,-166.15 1908.97,-134.3"/>
<polygon fill="#7f56d9" stroke="#7f56d9" stroke-width="1.1" points="1911.29,-135.55 1913.19,-127.83 1906.9,-132.68 1911.29,-135.55"/>
<text text-anchor="middle" x="1356.45" y="-220.8" font-family="Arial" font-size="9.00" fill="#6941c6">else</text>
</g>
<!-- devil_advocate -->
<g id="node8" class="node">
<title>devil_advocate</title>
<ellipse fill="#f7f7fb" stroke="#59636e" stroke-width="1.4" cx="1253.96" cy="-151" rx="69.48" ry="18"/>
<text text-anchor="middle" x="1253.96" y="-147.9" font-family="Arial" font-size="12.00" fill="#1f2933">devil_advocate</text>
</g>
<!-- reset_debate&#45;&gt;devil_advocate -->
<g id="edge4" class="edge">
<title>reset_debate&#45;&gt;devil_advocate</title>
<path fill="none" stroke="#667085" stroke-width="1.1" d="M1135.48,-151C1148.18,-151 1162.46,-151 1176.59,-151"/>
<polygon fill="#667085" stroke="#667085" stroke-width="1.1" points="1176.91,-153.63 1184.41,-151 1176.91,-148.38 1176.91,-153.63"/>
</g>
<!-- defender -->
<g id="node9" class="node">
<title>defender</title>
<ellipse fill="#f7f7fb" stroke="#59636e" stroke-width="1.4" cx="1547.95" cy="-151" rx="45.72" ry="18"/>
<text text-anchor="middle" x="1547.95" y="-147.9" font-family="Arial" font-size="12.00" fill="#1f2933">defender</text>
</g>
<!-- devil_advocate&#45;&gt;defender -->
<g id="edge5" class="edge">
<title>devil_advocate&#45;&gt;defender</title>
<path fill="none" stroke="#667085" stroke-width="1.1" d="M1323.79,-151C1375.86,-151 1446.3,-151 1494.01,-151"/>
<polygon fill="#667085" stroke="#667085" stroke-width="1.1" points="1494.26,-153.63 1501.76,-151 1494.26,-148.38 1494.26,-153.63"/>
</g>
<!-- arbiter -->
<g id="node10" class="node">
<title>arbiter</title>
<ellipse fill="#f7f7fb" stroke="#59636e" stroke-width="1.4" cx="1791.59" cy="-151" rx="36.27" ry="18"/>
<text text-anchor="middle" x="1791.59" y="-147.9" font-family="Arial" font-size="12.00" fill="#1f2933">arbiter</text>
</g>
<!-- defender&#45;&gt;arbiter -->
<g id="edge6" class="edge">
<title>defender&#45;&gt;arbiter</title>
<path fill="none" stroke="#667085" stroke-width="1.1" d="M1593.84,-151C1637.87,-151 1704.53,-151 1747.82,-151"/>
<polygon fill="#667085" stroke="#667085" stroke-width="1.1" points="1747.86,-153.63 1755.36,-151 1747.86,-148.38 1747.86,-153.63"/>
</g>
<!-- arbiter&#45;&gt;integrator -->
<g id="edge7" class="edge">
<title>arbiter&#45;&gt;integrator</title>
<path fill="none" stroke="#667085" stroke-width="1.1" d="M1822.66,-141.59C1839.61,-136.29 1861.09,-129.57 1879.87,-123.7"/>
<polygon fill="#667085" stroke="#667085" stroke-width="1.1" points="1880.82,-126.15 1887.2,-121.41 1879.25,-121.14 1880.82,-126.15"/>
</g>
<!-- integrator&#45;&gt;reset_debate -->
<g id="edge21" class="edge">
<title>integrator&#45;&gt;reset_debate</title>
<path fill="none" stroke="#7f56d9" stroke-width="1.1" stroke-dasharray="5,2" d="M1887.04,-98.75C1860.97,-91.72 1824.95,-84 1792.59,-84 1252.96,-84 1252.96,-84 1252.96,-84 1205.47,-84 1155.74,-109.3 1124.46,-128.81"/>
<polygon fill="#7f56d9" stroke="#7f56d9" stroke-width="1.1" points="1123,-126.63 1118.08,-132.87 1125.81,-131.06 1123,-126.63"/>
<text text-anchor="middle" x="1547.95" y="-86.8" font-family="Arial" font-size="9.00" fill="#6941c6">working.integration.sufficient == true ∧ working.integration.fatal_conflict truthy</text>
</g>
<!-- bump_round -->
<g id="node12" class="node">
<title>bump_round</title>
<path fill="#f2f4f7" stroke="#59636e" stroke-width="1.4" d="M2416.61,-44C2416.61,-44 2354.61,-44 2354.61,-44 2348.61,-44 2342.61,-38 2342.61,-32 2342.61,-32 2342.61,-20 2342.61,-20 2342.61,-14 2348.61,-8 2354.61,-8 2354.61,-8 2416.61,-8 2416.61,-8 2422.61,-8 2428.61,-14 2428.61,-20 2428.61,-20 2428.61,-32 2428.61,-32 2428.61,-38 2422.61,-44 2416.61,-44"/>
<text text-anchor="middle" x="2385.61" y="-22.9" font-family="Arial" font-size="12.00" fill="#1f2933">bump_round</text>
</g>
<!-- integrator&#45;&gt;bump_round -->
<g id="edge22" class="edge">
<title>integrator&#45;&gt;bump_round</title>
<path fill="none" stroke="#7f56d9" stroke-width="1.1" stroke-dasharray="5,2" d="M1964.2,-99.63C1974.68,-96.97 1986.05,-94.24 1996.61,-92 2117.23,-66.48 2260.56,-44.15 2334.67,-33.19"/>
<polygon fill="#7f56d9" stroke="#7f56d9" stroke-width="1.1" points="2335.46,-35.73 2342.49,-32.04 2334.69,-30.53 2335.46,-35.73"/>
<text text-anchor="middle" x="2157.61" y="-94.8" font-family="Arial" font-size="9.00" fill="#6941c6">else</text>
</g>
<!-- reporter -->
<g id="node13" class="node">
<title>reporter</title>
<ellipse fill="#f7f7fb" stroke="#59636e" stroke-width="1.4" cx="2385.61" cy="-110" rx="41.89" ry="18"/>
<text text-anchor="middle" x="2385.61" y="-106.9" font-family="Arial" font-size="12.00" fill="#1f2933">reporter</text>
</g>
<!-- integrator&#45;&gt;reporter -->
<g id="edge20" class="edge">
<title>integrator&#45;&gt;reporter</title>
<path fill="none" stroke="#7f56d9" stroke-width="1.1" stroke-dasharray="5,2" d="M1972.63,-110C2060.11,-110 2247.2,-110 2335.96,-110"/>
<polygon fill="#7f56d9" stroke="#7f56d9" stroke-width="1.1" points="2336.22,-112.63 2343.72,-110 2336.22,-107.38 2336.22,-112.63"/>
<text text-anchor="middle" x="2157.61" y="-112.8" font-family="Arial" font-size="9.00" fill="#6941c6">working.integration.sufficient == true ∧ ¬working.integration.fatal_conflict truthy</text>
</g>
<!-- bump_round&#45;&gt;planner -->
<g id="edge8" class="edge">
<title>bump_round&#45;&gt;planner</title>
<path fill="none" stroke="#667085" stroke-width="1.1" d="M2342.58,-22.02C2261.86,-14.74 2079.49,0 1925.67,0 219,0 219,0 219,0 132.25,0 74.26,-107.58 52.09,-157.32"/>
<polygon fill="#667085" stroke="#667085" stroke-width="1.1" points="49.68,-156.29 49.08,-164.22 54.49,-158.39 49.68,-156.29"/>
</g>
<!-- __end__ -->
<g id="node14" class="node">
<title>__end__</title>
<ellipse fill="#eef4ff" stroke="#59636e" stroke-width="1.4" cx="2508.71" cy="-110" rx="27.19" ry="27.19"/>
<ellipse fill="none" stroke="#59636e" stroke-width="1.4" cx="2508.71" cy="-110" rx="31.2" ry="31.2"/>
<text text-anchor="middle" x="2508.71" y="-106.9" font-family="Arial" font-size="12.00" fill="#1f2933">end</text>
</g>
<!-- reporter&#45;&gt;__end__ -->
<g id="edge9" class="edge">
<title>reporter&#45;&gt;__end__</title>
<path fill="none" stroke="#667085" stroke-width="1.1" d="M2427.61,-110C2441.27,-110 2456.4,-110 2469.81,-110"/>
<polygon fill="#667085" stroke="#667085" stroke-width="1.1" points="2469.98,-112.63 2477.48,-110 2469.98,-107.38 2469.98,-112.63"/>
</g>
</g>
</svg>
