<?xml version="1.0" encoding="UTF-8" standalone="no"?>
<!DOCTYPE svg PUBLIC "-//W3C//DTD SVG 1.1//EN"
 "http://www.w3.org/Graphics/SVG/1.1/DTD/svg11.dtd">
<!-- Generated by graphviz version 2.42.4 (0)
 -->
<!-- Title: G Pages: 1 -->
<svg width="2601pt" height="377pt"
 viewBox="0.00 0.00 2601.21 377.20" xmlns="http://www.w3.org/2000/svg" xmlns:xlink="http://www.w3.org/1999/xlink">
<g id="graph0" class="graph" transform="scale(1 1) rotate(0) translate(21.6 355.6)">
<title>G</title>
<!-- planner -->
<g id="node1" class="node">
<title>planner</title>
<ellipse fill="#eefaf3" stroke="#2e8b57" stroke-width="2.5" cx="41" cy="-182" rx="41" ry="18"/>
<text text-anchor="middle" x="41" y="-178.9" font-family="Arial" font-size="12.00" fill="#1f2933">planner</text>
</g>
<!-- scope_gate -->
<g id="node2" class="node">
<title>scope_gate</title>
<polygon fill="#fff7e6" stroke="#59636e" stroke-width="1.4" points="227.6,-271 147.9,-253 227.6,-235 307.3,-253 227.6,-271"/>
<text text-anchor="middle" x="227.6" y="-249.9" font-family="Arial" font-size="12.00" fill="#1f2933">scope_gate</text>
</g>
<!-- planner&#45;&gt;scope_gate -->
<g id="edge13" class="edge">
<title>planner&#45;&gt;scope_gate</title>
<path fill="none" stroke="#7f56d9" stroke-width="1.1" stroke-dasharray="5,2" d="M74.95,-192.13C90.01,-196.94 108.02,-202.96 124,-209 147.41,-217.85 173.31,-228.97 193.23,-237.82"/>
<polygon fill="#7f56d9" stroke="#7f56d9" stroke-width="1.1" points="192.36,-240.31 200.28,-240.96 194.5,-235.51 192.36,-240.31"/>
<text text-anchor="middle" x="115" y="-211.8" font-family="Arial" font-size="9.00" fill="#6941c6">else</text>
</g>
<!-- branch_a -->
<g id="node3" class="node">
<title>branch_a</title>
<ellipse fill="#f7f7fb" stroke="#59636e" stroke-width="1.4" cx="550.14" cy="-233" rx="47.89" ry="18"/>
<text text-anchor="middle" x="550.14" y="-229.9" font-family="Arial" font-size="12.00" fill="#1f2933">branch_a</text>
</g>
<!-- planner&#45;&gt;branch_a -->
<g id="edge10" class="edge">
<title>planner&#45;&gt;branch_a</title>
<path fill="none" stroke="#7f56d9" stroke-width="1.1" stroke-dasharray="5,2" d="M76.44,-172.88C152.34,-154.6 338.35,-119.81 478.2,-176 491.9,-181.51 490.85,-189.53 502.2,-199 507.76,-203.64 513.9,-208.36 519.86,-212.74"/>
<polygon fill="#7f56d9" stroke="#7f56d9" stroke-width="1.1" points="518.61,-215.08 526.22,-217.35 521.69,-210.83 518.61,-215.08"/>
<text text-anchor="middle" x="227.6" y="-160.8" font-family="Arial" font-size="9.00" fill="#6941c6">control.scope_decision == &#39;approve&#39;</text>
</g>
<!-- branch_b -->
<g id="node4" class="node">
<title>branch_b</title>
<ellipse fill="#f7f7fb" stroke="#59636e" stroke-width="1.4" cx="550.14" cy="-303" rx="47.89" ry="18"/>
<text text-anchor="middle" x="550.14" y="-299.9" font-family="Arial" font-size="12.00" fill="#1f2933">branch_b</text>
</g>
<!-- planner&#45;&gt;branch_b -->
<g id="edge11" class="edge">
<title>planner&#45;&gt;branch_b</title>
<path fill="none" stroke="#7f56d9" stroke-width="1.1" stroke-dasharray="5,2" d="M53.65,-199.34C71.03,-223.6 106.19,-266.94 148,-287 264.03,-342.68 421.39,-326.36 500.08,-312.94"/>
<polygon fill="#7f56d9" stroke="#7f56d9" stroke-width="1.1" points="500.97,-315.45 507.9,-311.57 500.06,-310.28 500.97,-315.45"/>
<text text-anchor="middle" x="227.6" y="-326.8" font-family="Arial" font-size="9.00" fill="#6941c6">control.scope_decision == &#39;approve&#39;</text>
</g>
<!-- branch_c -->
<g id="node5" class="node">
<title>branch_c</title>
<ellipse fill="#f7f7fb" stroke="#59636e" stroke-width="1.4" cx="550.14" cy="-165" rx="47.01" ry="18"/>
<text text-anchor="middle" x="550.14" y="-161.9" font-family="Arial" font-size="12.00" fill="#1f2933">branch_c</text>
</g>
<!-- planner&#45;&gt;branch_c -->
<g id="edge12" class="edge">
<title>planner&#45;&gt;branch_c</title>
<path fill="none" stroke="#7f56d9" stroke-width="1.1" stroke-dasharray="5,2" d="M57.23,-165.24C76.2,-145.85 110.71,-115.26 148,-105 289.9,-65.96 337.67,-86.26 478.2,-130 491.35,-134.09 505.09,-140.35 516.93,-146.45"/>
<polygon fill="#7f56d9" stroke="#7f56d9" stroke-width="1.1" points="515.81,-148.83 523.67,-150.01 518.26,-144.19 515.81,-148.83"/>
<text text-anchor="middle" x="227.6" y="-107.8" font-family="Arial" font-size="9.00" fill="#6941c6">control.scope_decision == &#39;approve&#39;</text>
</g>
<!-- scope_gate&#45;&gt;planner -->
<g id="edge17" class="edge">
<title>scope_gate&#45;&gt;planner</title>
<path fill="none" stroke="#7f56d9" stroke-width="1.1" stroke-dasharray="5,2" d="M184.92,-244.51C161.25,-238.98 131.37,-230.77 106,-220 93.88,-214.86 81.27,-207.79 70.49,-201.15"/>
<polygon fill="#7f56d9" stroke="#7f56d9" stroke-width="1.1" points="71.77,-198.85 64.02,-197.08 68.98,-203.3 71.77,-198.85"/>
<text text-anchor="middle" x="115" y="-228.8" font-family="Arial" font-size="9.00" fill="#6941c6">else</text>
</g>
<!-- scope_gate&#45;&gt;branch_a -->
<g id="edge14" class="edge">
<title>scope_gate&#45;&gt;branch_a</title>
<path fill="none" stroke="#7f56d9" stroke-width="1.1" stroke-dasharray="5,2" d="M290.4,-249.14C349.65,-245.45 438.22,-239.92 494.83,-236.39"/>
<polygon fill="#7f56d9" stroke="#7f56d9" stroke-width="1.1" points="495.27,-238.99 502.6,-235.9 494.95,-233.75 495.27,-238.99"/>
<text text-anchor="middle" x="404.7" y="-248.8" font-family="Arial" font-size="9.00" fill="#6941c6">control.scope_decision == &#39;approve&#39;</text>
</g>
<!-- scope_gate&#45;&gt;branch_b -->
<g id="edge15" class="edge">
<title>scope_gate&#45;&gt;branch_b</title>
<path fill="none" stroke="#7f56d9" stroke-width="1.1" stroke-dasharray="5,2" d="M275.21,-260.27C334.49,-269.52 436.51,-285.43 497.91,-295.01"/>
<polygon fill="#7f56d9" stroke="#7f56d9" stroke-width="1.1" points="497.75,-297.64 505.56,-296.2 498.56,-292.45 497.75,-297.64"/>
<text text-anchor="middle" x="404.7" y="-292.8" font-family="Arial" font-size="9.00" fill="#6941c6">control.scope_decision == &#39;approve&#39;</text>
</g>
<!-- scope_gate&#45;&gt;branch_c -->
<g id="edge16" class="edge">
<title>scope_gate&#45;&gt;branch_c</title>
<path fill="none" stroke="#7f56d9" stroke-width="1.1" stroke-dasharray="5,2" d="M259.38,-242.11C279.66,-235.11 306.86,-226.04 331.2,-219 389.43,-202.16 457.33,-185.86 501.67,-175.65"/>
<polygon fill="#7f56d9" stroke="#7f56d9" stroke-width="1.1" points="502.4,-178.17 509.13,-173.94 501.23,-173.06 502.4,-178.17"/>
<text text-anchor="middle" x="404.7" y="-221.8" font-family="Arial" font-size="9.00" fill="#6941c6">control.scope_decision == &#39;approve&#39;</text>
</g>
<!-- evidence_critic -->
<g id="node6" class="node">
<title>evidence_critic</title>
<ellipse fill="#f7f7fb" stroke="#59636e" stroke-width="1.4" cx="715.88" cy="-218" rx="68.59" ry="18"/>
<text text-anchor="middle" x="715.88" y="-214.9" font-family="Arial" font-size="12.00" fill="#1f2933">evidence_critic</text>
</g>
<!-- branch_a&#45;&gt;evidence_critic -->
<g id="edge1" class="edge">
<title>branch_a&#45;&gt;evidence_critic</title>
<path fill="none" stroke="#667085" stroke-width="1.1" d="M597.19,-228.78C611.41,-227.48 627.44,-226.01 642.97,-224.59"/>
<polygon fill="#667085" stroke="#667085" stroke-width="1.1" points="643.32,-227.19 650.55,-223.89 642.84,-221.96 643.32,-227.19"/>
</g>
<!-- branch_b&#45;&gt;evidence_critic -->
<g id="edge2" class="edge">
<title>branch_b&#45;&gt;evidence_critic</title>
<path fill="none" stroke="#667085" stroke-width="1.1" d="M578.92,-288.58C605.86,-274.59 646.96,-253.26 676.92,-237.71"/>
<polygon fill="#667085" stroke="#667085" stroke-width="1.1" points="678.45,-239.87 683.9,-234.09 676.03,-235.21 678.45,-239.87"/>
</g>
<!-- branch_c&#45;&gt;evidence_critic -->
<g id="edge3" class="edge">
<title>branch_c&#45;&gt;evidence_critic</title>
<path fill="none" stroke="#667085" stroke-width="1.1" d="M586.67,-176.5C609.44,-183.87 639.35,-193.55 664.54,-201.71"/>
<polygon fill="#667085" stroke="#667085" stroke-width="1.1" points="663.91,-204.26 671.86,-204.07 665.53,-199.27 663.91,-204.26"/>
</g>
<!-- reset_debate -->
<g id="node7" class="node">
<title>reset_debate</title>
<path fill="#f2f4f7" stroke="#59636e" stroke-width="1.4" d="M1141.68,-169C1141.68,-169 1077.68,-169 1077.68,-169 1071.68,-169 1065.68,-163 1065.68,-157 1065.68,-157 1065.68,-145 1065.68,-145 1065.68,-139 1071.68,-133 1077.68,-133 1077.68,-133 1141.68,-133 1141.68,-133 1147.68,-133 1153.68,-139 1153.68,-145 1153.68,-145 1153.68,-157 1153.68,-157 1153.68,-163 1147.68,-169 1141.68,-169"/>
<text text-anchor="middle" x="1109.68" y="-147.9" font-family="Arial" font-size="12.00" fill="#1f2933">reset_debate</text>
</g>
<!-- evidence_critic&#45;&gt;reset_debate -->
<g id="edge18" class="edge">
<title>evidence_critic&#45;&gt;reset_debate</title>
<path fill="none" stroke="#7f56d9" stroke-width="1.1" stroke-dasharray="5,2" d="M751.52,-202.36C768.43,-195.36 789.27,-187.65 808.68,-183 894.47,-162.43 997.24,-155.08 1057.5,-152.45"/>
<polygon fill="#7f56d9" stroke="#7f56d9" stroke-width="1.1" points="1057.97,-155.06 1065.36,-152.13 1057.76,-149.81 1057.97,-155.06"/>
<text text-anchor="middle" x="925.18" y="-185.8" font-family="Arial" font-size="9.00" fill="#6941c6">working.reviewed_evidence.has_critical_conflicts == true</text>
</g>
<!-- integrator -->
<g id="node11" class="node">
<title>integrator</title>
<ellipse fill="#f7f7fb" stroke="#59636e" stroke-width="1.4" cx="1942.87" cy="-110" rx="47.89" ry="18"/>
<text text-anchor="middle" x="1942.87" y="-106.9" font-family="Arial" font-size="12.00" fill="#1f2933">integrator</text>
</g>
<!-- evidence_critic&#45;&gt;integrator -->
<g id="edge19" class="edge">
<title>evidence_critic&#45;&gt;integrator</title>
<path fill="none" stroke="#7f56d9" stroke-width="1.1" stroke-dasharray="5,2" d="M784.83,-218C862.96,-218 995.08,-218 1108.68,-218 1108.68,-218 1108.68,-218 1810.79,-218 1863.09,-218 1905.84,-166.15 1927.17,-134.3"/>
<polygon fill="#7f56d9" stroke="#7f56d9" stroke-width="1.1" points="1929.49,-135.55 1931.39,-127.83 1925.09,-132.68 1929.49,-135.55"/>
<text text-anchor="middle" x="1374.65" y="-220.8" font-family="Arial" font-size="9.00" fill="#6941c6">else</text>
</g>
<!-- devil_advocate -->
<g id="node8" class="node">
<title>devil_advocate</title>
<ellipse fill="#f7f7fb" stroke="#59636e" stroke-width="1.4" cx="1272.16" cy="-151" rx="69.48" ry="18"/>
<text text-anchor="middle" x="1272.16" y="-147.9" font-family="Arial" font-size="12.00" fill="#1f2933">devil_advocate</text>
</g>
<!-- reset_debate&#45;&gt;devil_advocate -->
<g id="edge4" class="edge">
<title>reset_debate&#45;&gt;devil_advocate</title>
<path fill="none" stroke="#667085" stroke-width="1.1" d="M1153.68,-151C1166.38,-151 1180.66,-151 1194.79,-151"/>
<polygon fill="#667085" stroke="#667085" stroke-width="1.1" points="1195.11,-153.63 1202.61,-151 1195.11,-148.38 1195.11,-153.63"/>
</g>
<!-- defender -->
<g id="node9" class="node">
<title>defender</title>
<ellipse fill="#f7f7fb" stroke="#59636e" stroke-width="1.4" cx="1566.15" cy="-151" rx="45.72" ry="18"/>
<text text-anchor="middle" x="1566.15" y="-147.9" font-family="Arial" font-size="12.00" fill="#1f2933">defender</text>
</g>
<!-- devil_advocate&#45;&gt;defender -->
<g id="edge5" class="edge">
<title>devil_advocate&#45;&gt;defender</title>
<path fill="none" stroke="#667085" stroke-width="1.1" d="M1341.99,-151C1394.06,-151 1464.5,-151 1512.21,-151"/>
<polygon fill="#667085" stroke="#667085" stroke-width="1.1" points="1512.46,-153.63 1519.96,-151 1512.46,-148.38 1512.46,-153.63"/>
</g>
<!-- arbiter -->
<g id="node10" class="node">
<title>arbiter</title>
<ellipse fill="#f7f7fb" stroke="#59636e" stroke-width="1.4" cx="1809.79" cy="-151" rx="36.27" ry="18"/>
<text text-anchor="middle" x="1809.79" y="-147.9" font-family="Arial" font-size="12.00" fill="#1f2933">arbiter</text>
</g>
<!-- defender&#45;&gt;arbiter -->
<g id="edge6" class="edge">
<title>defender&#45;&gt;arbiter</title>
<path fill="none" stroke="#667085" stroke-width="1.1" d="M1612.04,-151C1656.07,-151 1722.73,-151 1766.02,-151"/>
<polygon fill="#667085" stroke="#667085" stroke-width="1.1" points="1766.06,-153.63 1773.56,-151 1766.06,-148.38 1766.06,-153.63"/>
</g>
<!-- arbiter&#45;&gt;integrator -->
<g id="edge7" class="edge">
<title>arbiter&#45;&gt;integrator</title>
<path fill="none" stroke="#667085" stroke-width="1.1" d="M1840.86,-141.59C1857.81,-136.29 1879.28,-129.57 1898.07,-123.7"/>
<polygon fill="#667085" stroke="#667085" stroke-width="1.1" points="1899.02,-126.15 1905.4,-121.41 1897.45,-121.14 1899.02,-126.15"/>
</g>
<!-- integrator&#45;&gt;reset_debate -->
<g id="edge21" class="edge">
<title>integrator&#45;&gt;reset_debate</title>
<path fill="none" stroke="#7f56d9" stroke-width="1.1" stroke-dasharray="5,2" d="M1905.24,-98.75C1879.17,-91.72 1843.15,-84 1810.79,-84 1271.16,-84 1271.16,-84 1271.16,-84 1223.67,-84 1173.94,-109.3 1142.66,-128.81"/>
<polygon fill="#7f56d9" stroke="#7f56d9" stroke-width="1.1" points="1141.19,-126.63 1136.28,-132.87 1144.01,-131.06 1141.19,-126.63"/>
<text text-anchor="middle" x="1566.15" y="-86.8" font-family="Arial" font-size="9.00" fill="#6941c6">working.integration.sufficient == true ∧ working.integration.fatal_conflict truthy</text>
</g>
<!-- bump_round -->
<g id="node12" class="node">
<title>bump_round</title>
<path fill="#f2f4f7" stroke="#59636e" stroke-width="1.4" d="M2434.81,-44C2434.81,-44 2372.81,-44 2372.81,-44 2366.81,-44 2360.81,-38 2360.81,-32 2360.81,-32 2360.81,-20 2360.81,-20 2360.81,-14 2366.81,-8 2372.81,-8 2372.81,-8 2434.81,-8 2434.81,-8 2440.81,-8 2446.81,-14 2446.81,-20 2446.81,-20 2446.81,-32 2446.81,-32 2446.81,-38 2440.81,-44 2434.81,-44"/>
<text text-anchor="middle" x="2403.81" y="-22.9" font-family="Arial" font-size="12.00" fill="#1f2933">bump_round</text>
</g>
<!-- integrator&#45;&gt;bump_round -->
<g id="edge22" class="edge">
<title>integrator&#45;&gt;bump_round</title>
<path fill="none" stroke="#7f56d9" stroke-width="1.1" stroke-dasharray="5,2" d="M1982.4,-99.63C1992.87,-96.97 2004.25,-94.24 2014.81,-92 2135.43,-66.48 2278.76,-44.15 2352.87,-33.19"/>
<polygon fill="#7f56d9" stroke="#7f56d9" stroke-width="1.1" points="2353.65,-35.73 2360.69,-32.04 2352.89,-30.53 2353.65,-35.73"/>
<text text-anchor="middle" x="2175.81" y="-94.8" font-family="Arial" font-size="9.00" fill="#6941c6">else</text>
</g>
<!-- reporter -->
<g id="node13" class="node">
<title>reporter</title>
<ellipse fill="#f7f7fb" stroke="#59636e" stroke-width="1.4" cx="2403.81" cy="-110" rx="41.89" ry="18"/>
<text text-anchor="middle" x="2403.81" y="-106.9" font-family="Arial" font-size="12.00" fill="#1f2933">reporter</text>
</g>
<!-- integrator&#45;&gt;reporter -->
<g id="edge20" class="edge">
<title>integrator&#45;&gt;reporter</title>
<path fill="none" stroke="#7f56d9" stroke-width="1.1" stroke-dasharray="5,2" d="M1990.83,-110C2078.31,-110 2265.4,-110 2354.16,-110"/>
<polygon fill="#7f56d9" stroke="#7f56d9" stroke-width="1.1" points="2354.42,-112.63 2361.92,-110 2354.42,-107.38 2354.42,-112.63"/>
<text text-anchor="middle" x="2175.81" y="-112.8" font-family="Arial" font-size="9.00" fill="#6941c6">working.integration.sufficient == true ∧ ¬working.integration.fatal_conflict truthy</text>
</g>
<!-- bump_round&#45;&gt;planner -->
<g id="edge8" class="edge">
<title>bump_round&#45;&gt;planner</title>
<path fill="none" stroke="#667085" stroke-width="1.1" d="M2360.78,-22.02C2280.06,-14.74 2097.69,0 1943.87,0 226.6,0 226.6,0 226.6,0 138.02,0 76.53,-107.58 52.83,-157.32"/>
<polygon fill="#667085" stroke="#667085" stroke-width="1.1" points="50.4,-156.31 49.61,-164.22 55.16,-158.53 50.4,-156.31"/>
</g>
<!-- __end__ -->
<g id="node14" class="node">
<title>__end__</title>
<ellipse fill="#eef4ff" stroke="#59636e" stroke-width="1.4" cx="2526.91" cy="-110" rx="27.19" ry="27.19"/>
<ellipse fill="none" stroke="#59636e" stroke-width="1.4" cx="2526.91" cy="-110" rx="31.2" ry="31.2"/>
<text text-anchor="middle" x="2526.91" y="-106.9" font-family="Arial" font-size="12.00" fill="#1f2933">end</text>
</g>
<!-- reporter&#45;&gt;__end__ -->
<g id="edge9" class="edge">
<title>reporter&#45;&gt;__end__</title>
<path fill="none" stroke="#667085" stroke-width="1.1" d="M2445.81,-110C2459.46,-110 2474.6,-110 2488.01,-110"/>
<polygon fill="#667085" stroke="#667085" stroke-width="1.1" points="2488.18,-112.63 2495.68,-110 2488.18,-107.38 2488.18,-112.63"/>
</g>
</g>
</svg>
